<svg width="53" height="62" viewBox="0 0 53 62" fill="none" xmlns="http://www.w3.org/2000/svg">
<path d="M49.4667 4.2625V23.2761H45.5407V8.1375H32.1926C30.0244 8.1375 28.2667 9.8724 28.2667 12.0125V49.2125H30.0575C31.5752 49.2125 32.8056 50.4269 32.8056 51.925V53.0875H20.0077V51.925C20.0077 50.4269 21.238 49.2125 22.7558 49.2125H24.3407V12.0125C24.3407 9.8724 22.583 8.1375 20.4148 8.1375H7.06667V23.2761H3.14074V4.2625H49.4667Z" fill="#D2B685"/>
<path d="M0 25.9625H10.6V26.1562C10.6 29.0454 8.22711 31.3875 5.3 31.3875C2.37289 31.3875 0 29.0454 0 26.1562V25.9625Z" fill="#0F5244"/>
<path d="M42.4 25.9625H53V26.1562C53 29.0454 50.6271 31.3875 47.7 31.3875C44.7729 31.3875 42.4 29.0454 42.4 26.1562V25.9625Z" fill="#0F5244"/>
<path d="M15.7037 44.175H18.4519V13.95H15.7037V44.175ZM21.5926 47.275H12.563V10.85H19.6296C20.7137 10.85 21.5926 11.7174 21.5926 12.7875V47.275Z" fill="#0F5244"/>
<path fill-rule="evenodd" clip-rule="evenodd" d="M40.437 26.9312L38.0815 29.2562L40.437 30.7605V47.275H37.2963V29.937L34.5481 32.2957V47.275H31.4074C31.4074 33.0502 31.4074 25.0748 31.4074 10.85H40.437V26.9312ZM34.5481 28.1876L37.2963 25.8289V13.95H34.5481V28.1876Z" fill="#0F5244"/>
<path d="M44.363 54.25C45.4471 54.25 46.3259 55.1174 46.3259 56.1875V57.35H7.06667V56.1875C7.06667 55.1174 7.94552 54.25 9.02963 54.25H44.363Z" fill="#0F5244"/>
<path d="M40.0444 58.9C41.1286 58.9 42.0074 59.7674 42.0074 60.8375V62C30.0487 62 23.3439 62 11.3852 62V60.8375C11.3852 59.7674 12.264 58.9 13.3481 58.9H40.0444Z" fill="#D2B685"/>
<path d="M31.8 0C33.1009 0 34.1556 1.04094 34.1556 2.325V3.1H19.237V2.325C19.237 1.04094 20.2917 0 21.5926 0H31.8Z" fill="#0F5244"/>
<path d="M18.0593 1.9375C18.2761 1.9375 18.4519 2.11099 18.4519 2.325V3.1H5.4963V2.325C5.4963 2.11099 5.67207 1.9375 5.88889 1.9375H18.0593Z" fill="#0F5244"/>
<path d="M47.5037 1.9375C47.7205 1.9375 47.8963 2.11099 47.8963 2.325V3.1H34.9407V2.325C34.9407 2.11099 35.1165 1.9375 35.3333 1.9375H47.5037Z" fill="#0F5244"/>
</svg>
