<svg width="36" height="36" viewBox="0 0 36 36" fill="none" xmlns="http://www.w3.org/2000/svg">
<rect width="36" height="36" rx="5" fill="#272727"/>
<path d="M27.5333 6.7875V14.7609H25.9037V8.4125H20.363C19.4629 8.4125 18.7333 9.14004 18.7333 10.0375V25.6375H19.4767C20.1067 25.6375 20.6174 26.1468 20.6174 26.775V27.2625H15.3051V26.775C15.3051 26.1468 15.8158 25.6375 16.4458 25.6375H17.1037V10.0375C17.1037 9.14004 16.3741 8.4125 15.4741 8.4125H9.93333V14.7609H8.3037V6.7875H27.5333Z" fill="white"/>
<path d="M7 15.8875H11.4V15.9688C11.4 17.1803 10.415 18.1625 9.2 18.1625C7.98497 18.1625 7 17.1803 7 15.9688V15.8875Z" fill="white"/>
<path d="M24.6 15.8875H29V15.9688C29 17.1803 28.015 18.1625 26.8 18.1625C25.585 18.1625 24.6 17.1803 24.6 15.9688V15.8875Z" fill="white"/>
<path d="M13.5185 23.525H14.6593V10.85H13.5185V23.525ZM15.963 24.825H12.2148V9.55H15.1481C15.5982 9.55 15.963 9.91377 15.963 10.3625V24.825Z" fill="white"/>
<path fill-rule="evenodd" clip-rule="evenodd" d="M23.7852 16.2938L22.8074 17.2688L23.7852 17.8995V24.825H22.4815V17.5542L21.3407 18.5434V24.825H20.037C20.037 18.8597 20.037 15.5153 20.037 9.55H23.7852V16.2938ZM21.3407 16.8206L22.4815 15.8315V10.85H21.3407V16.8206Z" fill="white"/>
<path d="M25.4148 27.75C25.8648 27.75 26.2296 28.1138 26.2296 28.5625V29.05H9.93333V28.5625C9.93333 28.1138 10.2981 27.75 10.7481 27.75H25.4148Z" fill="white"/>
<path d="M23.6222 29.7C24.0722 29.7 24.437 30.0638 24.437 30.5125V31C19.473 31 16.6899 31 11.7259 31V30.5125C11.7259 30.0638 12.0907 29.7 12.5407 29.7H23.6222Z" fill="white"/>
<path d="M20.2 5C20.74 5 21.1778 5.43652 21.1778 5.975V6.3H14.9852V5.975C14.9852 5.43652 15.423 5 15.963 5H20.2Z" fill="white"/>
<path d="M14.4963 5.8125C14.5863 5.8125 14.6593 5.88525 14.6593 5.975V6.3H9.28148V5.975C9.28148 5.88525 9.35444 5.8125 9.44444 5.8125H14.4963Z" fill="white"/>
<path d="M26.7185 5.8125C26.8085 5.8125 26.8815 5.88525 26.8815 5.975V6.3H21.5037V5.975C21.5037 5.88525 21.5767 5.8125 21.6667 5.8125H26.7185Z" fill="white"/>
</svg>
