<svg width="44" height="44" viewBox="0 0 44 44" fill="none" xmlns="http://www.w3.org/2000/svg">
<rect width="44" height="44" rx="22" fill="#0F5244"/>
<rect width="44" height="44" rx="22" fill="white" fill-opacity="0.8"/>
<path d="M24.6028 20.8467L24.5977 20.8583L24.5909 20.8783L24.5723 20.93L24.5672 20.95L24.5486 21.0367L24.5418 21.0867C24.5396 21.1133 24.5385 21.1406 24.5385 21.1683C24.5385 23.465 26.4372 25.335 28.7692 25.335C31.1012 25.335 33 23.465 33 21.1683L32.9966 21.0867L32.9898 21.0367L32.9848 21.0083L32.9712 20.95L32.9662 20.93L32.9475 20.8783L32.9408 20.8583L32.9357 20.8467V20.8417L30.0215 13.6667H31.3094C31.5338 13.6667 31.749 13.5789 31.9077 13.4226C32.0664 13.2663 32.1555 13.0543 32.1555 12.8333C32.1555 12.6123 32.0664 12.4004 31.9077 12.2441C31.749 12.0878 31.5338 12 31.3094 12H12.6906C12.4662 12 12.251 12.0878 12.0923 12.2441C11.9336 12.4004 11.8445 12.6123 11.8445 12.8333C11.8445 13.0543 11.9336 13.2663 12.0923 13.4226C12.251 13.5789 12.4662 13.6667 12.6906 13.6667H13.9785L11.0643 20.8417V20.8467L11.0592 20.8583L11.0525 20.8783L11.0338 20.93L11.0288 20.95L11.0102 21.0367L11.0034 21.0867C11.0011 21.1133 11 21.1406 11 21.1683C11 23.465 12.8988 25.335 15.2308 25.335C17.5628 25.335 19.4615 23.465 19.4615 21.1683L19.4582 21.0867L19.4514 21.0367L19.4463 21.0083L19.4328 20.95L19.4277 20.93L19.4091 20.8783L19.4023 20.8583L19.3972 20.8467V20.8417L16.4831 13.6667H21.1555V27H16.9248C15.5252 27 14.3863 28.1217 14.3863 29.5C14.3863 30.8783 15.5252 32 16.9248 32H27.0786C28.4782 32 29.6171 30.8783 29.6171 29.5C29.6171 28.1217 28.4782 27 27.0786 27H22.8478V13.6683H27.5203L24.6062 20.8433V20.8483L24.6028 20.8467ZM15.2291 15.0783L17.3648 20.335H13.0951L15.2291 15.0783ZM15.2291 23.6683C14.7042 23.6683 14.1922 23.5079 13.7637 23.2095C13.3352 22.911 13.0111 22.489 12.8362 22.0017H17.622C17.2717 22.9717 16.3325 23.6683 15.2291 23.6683ZM27.9214 29.5017C27.9214 29.7227 27.8322 29.9346 27.6736 30.0909C27.5149 30.2472 27.2996 30.335 27.0752 30.335H16.9214C16.697 30.335 16.4817 30.2472 16.3231 30.0909C16.1644 29.9346 16.0752 29.7227 16.0752 29.5017C16.0752 29.2807 16.1644 29.0687 16.3231 28.9124C16.4817 28.7561 16.697 28.6683 16.9214 28.6683H27.0752C27.2996 28.6683 27.5149 28.7561 27.6736 28.9124C27.8322 29.0687 27.9214 29.2807 27.9214 29.5017ZM28.7675 23.6683C28.2427 23.6683 27.7307 23.5079 27.3022 23.2095C26.8736 22.911 26.5496 22.489 26.3746 22.0017H31.1605C30.8102 22.9717 29.8709 23.6683 28.7675 23.6683ZM26.6318 20.335L28.7675 15.0783L30.9032 20.335H26.6318Z" fill="#0F5244"/>
</svg>
